<svg width="24" height="24" viewBox="0 0 24 24" fill="none" xmlns="http://www.w3.org/2000/svg">
<g clip-path="url(#clip0_30_18089)">
<rect opacity="0.6" x="3" y="3" width="18" height="18" rx="2" stroke="#74DCFF" stroke-width="0.04"/>
<rect opacity="0.6" x="2" y="2" width="20" height="20" rx="10" stroke="#A5A5A5" stroke-width="0.04"/>
<rect opacity="0.6" x="7" y="7" width="10" height="10" rx="5" stroke="#A5A5A5" stroke-width="0.04"/>
<rect opacity="0.6" x="2" y="4" width="20" height="16" rx="2" stroke="#FFA800" stroke-width="0.04"/>
<rect opacity="0.6" x="4" y="22" width="20" height="16" rx="2" transform="rotate(-90 4 22)" stroke="#F79DFF" stroke-width="0.04"/>
<path opacity="0.6" d="M24 0L0 24" stroke="#A5A5A5" stroke-width="0.04"/>
<path opacity="0.6" d="M0 0L24 24" stroke="#A5A5A5" stroke-width="0.04"/>
<path fill-rule="evenodd" clip-rule="evenodd" d="M4.75001 6C4.75001 5.86193 4.86194 5.75 5.00001 5.75H19C19.1381 5.75 19.25 5.86193 19.25 6V7.53647L12 11.1615L4.75001 7.53647V6ZM3.25001 7.98375C3.24979 7.99421 3.24979 8.00466 3.25001 8.01509V18C3.25001 18.9665 4.03351 19.75 5.00001 19.75H19C19.9665 19.75 20.75 18.9665 20.75 18V8.01508C20.7502 8.00466 20.7502 7.99421 20.75 7.98376V6C20.75 5.0335 19.9665 4.25 19 4.25H5.00001C4.03351 4.25 3.25001 5.0335 3.25001 6V7.98375ZM19.25 9.21353V18C19.25 18.1381 19.1381 18.25 19 18.25H5.00001C4.86194 18.25 4.75001 18.1381 4.75001 18V9.21353L11.6646 12.6708C11.8757 12.7764 12.1243 12.7764 12.3354 12.6708L19.25 9.21353Z" fill="black"/>
</g>
<defs>
<clipPath id="clip0_30_18089">
<rect width="24" height="24" fill="white"/>
</clipPath>
</defs>
</svg>
