<svg width="24" height="24" viewBox="0 0 24 24" fill="none" xmlns="http://www.w3.org/2000/svg">
<g clip-path="url(#clip0_30_18222)">
<rect opacity="0.6" x="3" y="3" width="18" height="18" rx="2" stroke="#74DCFF" stroke-width="0.04"/>
<rect opacity="0.6" x="2" y="2" width="20" height="20" rx="10" stroke="#A5A5A5" stroke-width="0.04"/>
<rect opacity="0.6" x="7" y="7" width="10" height="10" rx="5" stroke="#A5A5A5" stroke-width="0.04"/>
<rect opacity="0.6" x="2" y="4" width="20" height="16" rx="2" stroke="#FFA800" stroke-width="0.04"/>
<rect opacity="0.6" x="4" y="22" width="20" height="16" rx="2" transform="rotate(-90 4 22)" stroke="#F79DFF" stroke-width="0.04"/>
<path opacity="0.6" d="M24 0L0 24" stroke="#A5A5A5" stroke-width="0.04"/>
<path opacity="0.6" d="M0 0L24 24" stroke="#A5A5A5" stroke-width="0.04"/>
<path fill-rule="evenodd" clip-rule="evenodd" d="M10.6561 6.89358C11.0795 6.80349 11.5271 6.75 12 6.75C14.4037 6.75 16.2159 8.07923 17.4664 9.49626C18.0878 10.2004 18.5529 10.9077 18.8626 11.4397C18.993 11.6638 19.0949 11.8553 19.1686 12.0004C19.1174 12.1012 19.0525 12.2247 18.9737 12.3661C18.7394 12.7862 18.3854 13.3597 17.9095 13.9676C17.6541 14.2938 17.7115 14.7652 18.0376 15.0205C18.3638 15.2759 18.8352 15.2185 19.0905 14.8923C19.6246 14.2103 20.0206 13.5687 20.2838 13.0964C20.4157 12.8598 20.515 12.6644 20.5822 12.526C20.6159 12.4568 20.6415 12.4018 20.6593 12.3628C20.6682 12.3433 20.6751 12.3279 20.6801 12.3167L20.686 12.3031L20.6879 12.2988L20.6886 12.2973L20.6888 12.2967L20.6889 12.2964C20.689 12.2963 20.689 12.2962 20 12L20.689 12.2962C20.7705 12.1067 20.7703 11.8921 20.6886 11.7028L20 12C20.6886 11.7028 20.6885 11.7025 20.6883 11.7022L20.688 11.7015L20.6872 11.6996L20.6849 11.6943L20.6773 11.6772C20.671 11.663 20.662 11.6432 20.6505 11.6182C20.6275 11.5683 20.594 11.4975 20.55 11.4089C20.4621 11.2317 20.332 10.9825 20.159 10.6853C19.8139 10.0923 19.2934 9.29957 18.5911 8.50374C17.1941 6.92077 15.0063 5.25 12 5.25C11.4129 5.25 10.8605 5.31652 10.3439 5.42642C9.93877 5.51263 9.68022 5.91094 9.76642 6.31608C9.85262 6.72123 10.2509 6.97978 10.6561 6.89358ZM8.03802 6.97736L10.7574 9.69679C10.7584 9.69774 10.7594 9.69869 10.7603 9.69965C10.7613 9.70061 10.7622 9.70157 10.7632 9.70253L14.2953 13.2347C14.297 13.2363 14.2987 13.238 14.3003 13.2396C14.302 13.2413 14.3037 13.243 14.3053 13.2446L17.0214 15.9607C17.027 15.9661 17.0325 15.9717 17.038 15.9773L18.5303 17.4697C18.8232 17.7626 18.8232 18.2374 18.5303 18.5303C18.2374 18.8232 17.7626 18.8232 17.4697 18.5303L16.4133 17.474C15.1981 18.2522 13.7232 18.75 12 18.75C8.99371 18.75 6.80588 17.0792 5.40891 15.4963C4.70659 14.7004 4.18607 13.9077 3.84099 13.3147C3.66799 13.0175 3.53786 12.7683 3.44998 12.5911C3.40601 12.5025 3.37254 12.4317 3.34949 12.3818C3.33796 12.3568 3.32903 12.337 3.32269 12.3228L3.31511 12.3057L3.31278 12.3004L3.31198 12.2985L3.31167 12.2978C3.31154 12.2975 3.31142 12.2972 4 12C3.3083 11.7101 3.30837 11.7099 3.30845 11.7097L3.30863 11.7093L3.30908 11.7082L3.31029 11.7054L3.31399 11.6967L3.32651 11.6678C3.33713 11.6436 3.35233 11.6095 3.37212 11.5664C3.4117 11.4803 3.46973 11.3582 3.54641 11.2074C3.6996 10.906 3.92822 10.4879 4.23406 10.012C4.73157 9.23788 5.44526 8.29207 6.38644 7.4471L5.46967 6.53033C5.17678 6.23744 5.17678 5.76256 5.46967 5.46967C5.76256 5.17678 6.23744 5.17678 6.53033 5.46967L8.02131 6.96065C8.02695 6.96612 8.03252 6.97169 8.03802 6.97736ZM4 12L3.3083 11.7101C3.2295 11.8981 3.23063 12.1101 3.31142 12.2972L4 12ZM15.3217 16.3823L13.7089 14.7695C12.454 15.547 10.79 15.3906 9.69967 14.3003C8.60937 13.21 8.45297 11.546 9.23045 10.2911L7.44889 8.50955C6.61016 9.24904 5.95905 10.1024 5.49594 10.823C5.22178 11.2496 5.0179 11.6228 4.88359 11.887C4.86399 11.9256 4.8459 11.9618 4.8293 11.9954C4.90312 12.141 5.00578 12.334 5.13744 12.5603C5.44705 13.0923 5.91216 13.7996 6.53359 14.5037C7.78412 15.9208 9.59629 17.25 12 17.25C13.2834 17.25 14.3878 16.9176 15.3217 16.3823ZM10.3479 11.4086C10.1258 12.0267 10.2632 12.7425 10.7603 13.2396C11.2574 13.7367 11.9733 13.8742 12.5914 13.652L10.3479 11.4086Z" fill="black"/>
</g>
<defs>
<clipPath id="clip0_30_18222">
<rect width="24" height="24" fill="white"/>
</clipPath>
</defs>
</svg>
