<svg width="24" height="24" viewBox="0 0 24 24" fill="none" xmlns="http://www.w3.org/2000/svg">
<g clip-path="url(#clip0_30_18180)">
<rect opacity="0.6" x="3" y="3" width="18" height="18" rx="2" stroke="#74DCFF" stroke-width="0.04"/>
<rect opacity="0.6" x="2" y="2" width="20" height="20" rx="10" stroke="#A5A5A5" stroke-width="0.04"/>
<rect opacity="0.6" x="7" y="7" width="10" height="10" rx="5" stroke="#A5A5A5" stroke-width="0.04"/>
<rect opacity="0.6" x="2" y="4" width="20" height="16" rx="2" stroke="#FFA800" stroke-width="0.04"/>
<rect opacity="0.6" x="4" y="22" width="20" height="16" rx="2" transform="rotate(-90 4 22)" stroke="#F79DFF" stroke-width="0.04"/>
<path opacity="0.6" d="M24 0L0 24" stroke="#A5A5A5" stroke-width="0.04"/>
<path opacity="0.6" d="M0 0L24 24" stroke="#A5A5A5" stroke-width="0.04"/>
<path fill-rule="evenodd" clip-rule="evenodd" d="M5.13744 12.5603C5.00715 12.3364 4.90527 12.145 4.83162 12C4.90527 11.855 5.00715 11.6636 5.13744 11.4397C5.44705 10.9077 5.91216 10.2004 6.53359 9.49626C7.78412 8.07923 9.59629 6.75 12 6.75C14.4037 6.75 16.2159 8.07923 17.4664 9.49626C18.0878 10.2004 18.5529 10.9077 18.8626 11.4397C18.9928 11.6636 19.0947 11.855 19.1684 12C19.0947 12.145 18.9928 12.3364 18.8626 12.5603C18.5529 13.0923 18.0878 13.7996 17.4664 14.5037C16.2159 15.9208 14.4037 17.25 12 17.25C9.59629 17.25 7.78412 15.9208 6.53359 14.5037C5.91216 13.7996 5.44705 13.0923 5.13744 12.5603ZM20.6883 11.7022C20.6885 11.7025 20.6886 11.7028 20 12C20.6886 12.2972 20.6885 12.2975 20.6883 12.2978L20.688 12.2985L20.6872 12.3004L20.6849 12.3057L20.6773 12.3228C20.671 12.337 20.662 12.3568 20.6505 12.3818C20.6275 12.4317 20.594 12.5025 20.55 12.5911C20.4621 12.7683 20.332 13.0175 20.159 13.3147C19.8139 13.9077 19.2934 14.7004 18.5911 15.4963C17.1941 17.0792 15.0063 18.75 12 18.75C8.99371 18.75 6.80588 17.0792 5.40891 15.4963C4.70659 14.7004 4.18607 13.9077 3.84099 13.3147C3.66799 13.0175 3.53786 12.7683 3.44998 12.5911C3.40601 12.5025 3.37254 12.4317 3.34949 12.3818C3.33796 12.3568 3.32903 12.337 3.32269 12.3228L3.31511 12.3057L3.31278 12.3004L3.31198 12.2985L3.31167 12.2978C3.31154 12.2975 3.31142 12.2972 4 12C3.31142 11.7028 3.31154 11.7025 3.31167 11.7022L3.31198 11.7015L3.31278 11.6996L3.31511 11.6943L3.32269 11.6772C3.32903 11.663 3.33796 11.6432 3.34949 11.6182C3.37254 11.5683 3.40601 11.4975 3.44998 11.4089C3.53786 11.2317 3.66799 10.9825 3.84099 10.6853C4.18607 10.0923 4.70659 9.29957 5.40891 8.50374C6.80588 6.92077 8.99371 5.25 12 5.25C15.0063 5.25 17.1941 6.92077 18.5911 8.50374C19.2934 9.29957 19.8139 10.0923 20.159 10.6853C20.332 10.9825 20.4621 11.2317 20.55 11.4089C20.594 11.4975 20.6275 11.5683 20.6505 11.6182C20.662 11.6432 20.671 11.663 20.6773 11.6772L20.6849 11.6943L20.6872 11.6996L20.688 11.7015L20.6883 11.7022ZM20 12L20.6886 11.7028C20.7705 11.8925 20.7705 12.1075 20.6886 12.2972L20 12ZM3.31142 11.7028L4 12L3.31142 12.2972C3.22953 12.1075 3.22953 11.8925 3.31142 11.7028ZM10.25 12C10.25 11.0335 11.0335 10.25 12 10.25C12.9665 10.25 13.75 11.0335 13.75 12C13.75 12.9665 12.9665 13.75 12 13.75C11.0335 13.75 10.25 12.9665 10.25 12ZM12 8.75C10.2051 8.75 8.75 10.2051 8.75 12C8.75 13.7949 10.2051 15.25 12 15.25C13.7949 15.25 15.25 13.7949 15.25 12C15.25 10.2051 13.7949 8.75 12 8.75Z" fill="black"/>
</g>
<defs>
<clipPath id="clip0_30_18180">
<rect width="24" height="24" fill="white"/>
</clipPath>
</defs>
</svg>
