<svg width="24" height="24" viewBox="0 0 24 24" fill="none" xmlns="http://www.w3.org/2000/svg">
<g clip-path="url(#clip0_30_19260)">
<rect opacity="0.6" x="3" y="3" width="18" height="18" rx="2" stroke="#74DCFF" stroke-width="0.04"/>
<rect opacity="0.6" x="2" y="2" width="20" height="20" rx="10" stroke="#A5A5A5" stroke-width="0.04"/>
<rect opacity="0.6" x="7" y="7" width="10" height="10" rx="5" stroke="#A5A5A5" stroke-width="0.04"/>
<rect opacity="0.6" x="2" y="4" width="20" height="16" rx="2" stroke="#FFA800" stroke-width="0.04"/>
<rect opacity="0.6" x="4" y="22" width="20" height="16" rx="2" transform="rotate(-90 4 22)" stroke="#F79DFF" stroke-width="0.04"/>
<path opacity="0.6" d="M24 0L0 24" stroke="#A5A5A5" stroke-width="0.04"/>
<path opacity="0.6" d="M0 0L24 24" stroke="#A5A5A5" stroke-width="0.04"/>
<path fill-rule="evenodd" clip-rule="evenodd" d="M12 3.25C9.37579 3.25 7.25 5.37579 7.25 8V10.25H7C5.48122 10.25 4.25 11.4812 4.25 13V18C4.25 19.5188 5.48122 20.75 7 20.75H17C18.5188 20.75 19.75 19.5188 19.75 18V13C19.75 11.4812 18.5188 10.25 17 10.25H16.75V8C16.75 5.37579 14.6242 3.25 12 3.25ZM15.25 10.25V8C15.25 6.20421 13.7958 4.75 12 4.75C10.2042 4.75 8.75 6.20421 8.75 8V10.25H15.25ZM8 11.75H7C6.30964 11.75 5.75 12.3096 5.75 13V18C5.75 18.6904 6.30964 19.25 7 19.25H17C17.6904 19.25 18.25 18.6904 18.25 18V13C18.25 12.3096 17.6904 11.75 17 11.75H16H8Z" fill="black"/>
</g>
<defs>
<clipPath id="clip0_30_19260">
<rect width="24" height="24" fill="white"/>
</clipPath>
</defs>
</svg>
